<?xml version="1.0" encoding="UTF-8"?>
<svg id="Layer_1" xmlns="http://www.w3.org/2000/svg" viewBox="0 0 1080 1080">
  <defs>
    <style>
      .cls-1 {
        stroke: #fff;
        stroke-miterlimit: 10;
      }

      .cls-1, .cls-2, .cls-3 {
        fill: #fff;
      }

      .cls-3 {
        font-family: Poppins-SemiBold, Poppins;
        font-size: 63.4px;
        font-weight: 600;
      }
    </style>
  </defs>
  <text class="cls-3" transform="translate(460.11 557.52)"><tspan x="0" y="0">Society for</tspan><tspan x="0" y="71">Interdisciplinary </tspan><tspan x="0" y="142">Biologists</tspan></text>
  <g>
    <path class="cls-2" d="M132.58,627.17c-.82-.43-1.63-.88-2.45-1.32-3.23,2.19-6.25,4.17-7.82,5.27-3.91,2.74-7.64,5.8-10.38,9.28-1.54,1.95-2.74,4.03-3.52,6.25-.24,1.28-.35,2.59-.33,3.92.75-2.57,2.1-4.95,3.85-7.17,2.74-3.48,6.47-6.54,10.38-9.28,1.96-1.38,6.2-4.13,10.27-6.95Z"/>
    <path class="cls-2" d="M125.88,635.03c-.79.53-1.55,1.06-2.27,1.57-.2.15-.39.29-.59.43l18.36-1.42-14.66-1.14c-.28.18-.57.37-.85.56Z"/>
    <path class="cls-2" d="M140,627c12,6,20,13,23.48,21.41,9.52,25.59,33.52,39.59,95.52,39.59,76,0,92-60.3,92-93s-15-75-70-75c-94.02,0-121-21-121-21,0,0-54-22.03-54-68.52v93.76c.94,2.02,2.22,3.9,3.79,5.65,2.99,3.35,6.95,6.23,11.05,8.78,2.05,1.28,6.5,3.84,10.76,6.46-1.73,1.03-3.46,2.07-5.16,3.14-3.54-2.14-6.98-4.39-10.09-6.91-3.17-2.57-5.62-5.29-7.25-7.79-1.43-2.17-2.49-4.48-3.1-6.91v42.89c3.38-5.98,8.56-11.36,15.06-15.4-1.39,2.01-3.63,3.48-6.55,8.66-7.13,12.67-4.69,27.47,5.49,39.19,6.3,7.25,15.06,12.26,24.36,18.63,22.15,15.35,18.4,23.19,19.53,26.94-3.05-10.11-13.86-16.8-24.28-22.26-11.93-6.26-24.69-12.32-31.95-22.3-.61-.83-1.15-1.67-1.66-2.52v2.51c7,12,22.18,18.09,34,24ZM118.47,533.95c-1.43-1.11-2.77-2.27-3.97-3.5l29.3,1.88-25.33,1.63ZM125.97,538.94c-1.25-.73-2.47-1.48-3.65-2.25l15.58,1.28-11.93.98ZM129.49,551.78c2.97-2.45,5.79-4.46,8.53-6.39,9.43-6.52,21.51-13.1,24.51-23.4.24,11.33-8.78,19.24-19.13,26.29-2.92,2-6.34,4.17-9.62,6.34-6.64,4.44-13.44,9.22-18.08,15.88,1.64-5.98,5-11.6,13.79-18.73ZM123.1,572.39l25.37-1.56c.84,1.07,1.6,2.17,2.29,3.27l-27.66-1.71ZM152.04,576.3c.62,1.17,1.18,2.36,1.66,3.55l-32.91-1.82,31.26-1.73ZM127.09,566.76l16.5-1.21c.92.84,1.8,1.71,2.63,2.62l-19.13-1.4ZM131.91,561.12l5.6-.53c.54.39,1.07.79,1.6,1.2l-7.2-.67ZM119.32,583.68l35.11-1.8c.39,1.21.71,2.43.95,3.64l-36.06-1.85ZM120.79,589.31l34.9-1.93c.18,1.3.26,2.59.27,3.88l-35.17-1.95ZM155.32,592.97l-2.51,3.82-29.71-1.83,32.22-1.99ZM151.39,598.81c-.88,1.17-1.84,2.29-2.87,3.36l-21.43-1.57,24.31-1.78ZM145.62,604.94c-.89.79-1.83,1.56-2.79,2.31l-10.92-1.02,13.7-1.29ZM143.31,615.91c-.57-.37-1.14-.75-1.7-1.12-.78-.51-1.54-1.02-2.31-1.52,2.63-1.8,5.17-3.64,7.54-5.63,1.19-1,2.35-2.04,3.43-3.12.68-.67,1.34-1.36,1.96-2.07.96-1.09,1.86-2.22,2.69-3.42-.33,1.19-.73,2.36-1.22,3.52-.23.57-.49,1.14-.78,1.71-.26.56-.56,1.12-.88,1.67-.43.7-.9,1.39-1.39,2.06-2.06,2.83-4.57,5.45-7.35,7.92ZM148.56,615.41c.78-1.14,2.08-2.37,3.05-3.54,8.33-10.19,10.09-23.19,3.8-35.75-4.4-8.51-10.43-13.82-19.15-19.8,1.05-.69,2.11-1.38,3.17-2.08,1.38-.9,2.77-1.8,4.15-2.72,10.28,5.89,18.42,12.44,22.35,22.09,6.16,15.06-1.9,32.18-17.36,41.81Z"/>
    <path class="cls-2" d="M115.99,643.15l31.97-1.92-28.16-1.69c-1.45,1.22-2.72,2.42-3.81,3.61Z"/>
    <path class="cls-2" d="M131.91,561.12l7.2.67c-.53-.41-1.06-.81-1.6-1.2l-5.6.53Z"/>
    <path class="cls-2" d="M143.59,565.54l-16.5,1.21,19.13,1.4c-.82-.9-1.7-1.77-2.63-2.62Z"/>
    <path class="cls-2" d="M123.1,572.39l27.66,1.71c-.69-1.1-1.45-2.2-2.29-3.27l-25.37,1.56Z"/>
    <path class="cls-2" d="M153.7,579.85c-.48-1.19-1.03-2.38-1.66-3.55l-31.26,1.73,32.91,1.82Z"/>
    <path class="cls-2" d="M154.43,581.88l-35.11,1.8,36.06,1.85c-.24-1.22-.56-2.44-.95-3.64Z"/>
    <path class="cls-2" d="M145.62,604.94l-13.7,1.29,10.92,1.02c.96-.75,1.9-1.52,2.79-2.31Z"/>
    <path class="cls-2" d="M151.39,598.81l-24.31,1.78,21.43,1.57c1.03-1.07,1.99-2.18,2.87-3.36Z"/>
    <polygon class="cls-2" points="155.32 592.97 123.1 594.95 152.81 596.78 155.32 592.97"/>
    <path class="cls-2" d="M155.68,587.38l-34.9,1.93,35.17,1.95c0-1.29-.1-2.58-.27-3.88Z"/>
    <path class="cls-2" d="M122.32,631.12c1.56-1.1,4.59-3.08,7.82-5.27-.98-.52-1.96-1.04-2.93-1.58-3.38,2.31-6.64,4.7-9.56,7.37-2.98,2.71-5.22,5.54-6.67,8.11-1.24,2.19-2.12,4.49-2.56,6.89.78-2.22,1.98-4.3,3.52-6.25,2.74-3.48,6.47-6.54,10.38-9.28Z"/>
    <path class="cls-2" d="M116.36,541.36c3.11,2.53,6.55,4.77,10.09,6.91,1.7-1.07,3.43-2.11,5.16-3.14-4.27-2.63-8.71-5.18-10.76-6.46-4.1-2.56-8.06-5.43-11.05-8.78-1.57-1.75-2.85-3.63-3.79-5.65v2.42c.61,2.43,1.67,4.74,3.1,6.91,1.64,2.5,4.08,5.22,7.25,7.79Z"/>
    <path class="cls-2" d="M105.42,522.91c.07,1.28.27,2.53.58,3.75v-2.42c-.2-.44-.41-.88-.58-1.33Z"/>
    <path class="cls-2" d="M152.05,605.92c.32-.55.62-1.11.88-1.67.29-.57.54-1.14.78-1.71.49-1.16.89-2.34,1.22-3.52-.82,1.19-1.73,2.32-2.69,3.42-.62.71-1.28,1.4-1.96,2.07-1.09,1.09-2.24,2.12-3.43,3.12-2.37,1.99-4.91,3.84-7.54,5.63.76.5,1.53,1.01,2.31,1.52.57.37,1.14.75,1.7,1.12,2.78-2.47,5.29-5.09,7.35-7.92.49-.67.96-1.36,1.39-2.06Z"/>
    <path class="cls-2" d="M165.92,573.6c-3.92-9.65-12.07-16.2-22.35-22.09-1.38.93-2.77,1.83-4.15,2.72-1.06.69-2.12,1.38-3.17,2.08,8.72,5.98,14.75,11.29,19.15,19.8,6.29,12.56,4.53,25.56-3.8,35.75-.97,1.17-2.27,2.4-3.05,3.54,15.46-9.63,23.52-26.75,17.36-41.81Z"/>
    <path class="cls-2" d="M133.78,554.64c3.28-2.17,6.7-4.34,9.62-6.34,10.35-7.05,19.37-14.96,19.13-26.29-3,10.3-15.08,16.88-24.51,23.4-2.74,1.93-5.56,3.94-8.53,6.39-8.79,7.13-12.15,12.75-13.79,18.73,4.64-6.66,11.44-11.44,18.08-15.88Z"/>
    <path class="cls-2" d="M103.69,595.96c.62,1.52,1.4,3.03,2.31,4.53v-30.94c-4.66,8.26-5.88,17.68-2.31,26.41Z"/>
    <path class="cls-2" d="M139.61,625.31c10.42,5.46,21.23,12.15,24.28,22.26-1.13-3.75,2.62-11.59-19.53-26.94-9.3-6.37-18.06-11.38-24.36-18.63-10.18-11.71-12.62-26.52-5.49-39.19,2.92-5.18,5.16-6.65,6.55-8.66-6.5,4.05-11.68,9.42-15.06,15.4v30.94c.51.84,1.05,1.69,1.66,2.52,7.26,9.98,20.03,16.04,31.95,22.3Z"/>
    <path class="cls-2" d="M291.34,457.04c-3.84-.66-7.72-1.04-11.61-1.14-13.13-.35-52.9-1.74-68.32-5.83-3.1-.82-6.38-.72-9.33-1.96-31.32-13.18-29.15-35.42-29.08-36.09,0-.01,0-.02,0-.04v-56.71l-67-65.37v140.58c0,46.48,54,68.52,54,68.52,0,0,26.98,21,121,21,55,0,70,42,70,75s-16,93-92,93c-62,0-86-14-95.52-39.59-3.48-8.41-11.48-15.41-23.48-21.41s-27-12-34-24v24.31c0,.27.1.54.1.81-.1,121.88,124.93,127.34,155.9,126.88,31.04-.45,156-19,156-153,0-114.97-98.65-140.13-126.66-144.96ZM141.39,635.6l-18.36,1.42c.2-.14.39-.28.59-.43.71-.51,1.47-1.03,2.27-1.57.28-.19.57-.38.85-.56l14.66,1.14ZM111.93,643.4c-1.75,2.22-3.1,4.6-3.85,7.17-.03-1.33.09-2.64.33-3.92-.11.31-.24.61-.33.92-.08-3.84.98-7.46,2.89-10.81,1.45-2.57,3.69-5.4,6.67-8.11,2.92-2.67,6.19-5.07,9.56-7.37,1.78.99,3.58,1.95,5.38,2.9-.82.57-1.64,1.13-2.45,1.68.82.44,1.63.89,2.45,1.32-4.07,2.82-8.31,5.58-10.27,6.95-3.91,2.74-7.64,5.8-10.38,9.28ZM115.99,643.15c1.09-1.19,2.36-2.39,3.81-3.61l28.16,1.69-31.97,1.92Z"/>
    <path class="cls-2" d="M242,354s0,0,0,0c46.98,15.99,31.01,67.96,31,71,0,0,0,0,0,0,50.97,5,49,10.99,59.98,15.99,0,0,.02,0,.02,0,34.98-133.95-93.29-153.34-93.36-153.35,0,0,0,0,0,0H108.17l68.02,66.37h65.8Z"/>
    <path class="cls-2" d="M117.64,631.64c2.92-2.67,6.19-5.07,9.56-7.37.97.54,1.95,1.05,2.93,1.58.81-.55,1.63-1.11,2.45-1.68-1.8-.95-3.6-1.9-5.38-2.9-3.38,2.31-6.64,4.7-9.56,7.37-2.98,2.71-5.22,5.54-6.67,8.11-1.9,3.35-2.97,6.97-2.89,10.81.09-.31.22-.61.33-.92.44-2.4,1.32-4.71,2.56-6.89,1.45-2.57,3.69-5.4,6.67-8.11Z"/>
    <path class="cls-1" d="M106.01,287.63h2.16l-2.17-2.12v2.13s0-.01.01-.01Z"/>
    <circle class="cls-2" cx="134.5" cy="518.5" r="19.5"/>
  </g>
</svg>